M48
; DRILL file {KiCad 9.0.8} date 2026-04-01T14:07:31+0545
; FORMAT={-:-/ absolute / metric / decimal}
; #@! TF.CreationDate,2026-04-01T14:07:31+05:45
; #@! TF.GenerationSoftware,Kicad,Pcbnew,9.0.8
; #@! TF.FileFunction,MixedPlating,1,2
FMAT,2
METRIC
; #@! TA.AperFunction,Plated,PTH,ViaDrill
T1C0.300
; #@! TA.AperFunction,Plated,PTH,ComponentDrill
T2C0.800
; #@! TA.AperFunction,Plated,PTH,ComponentDrill
T3C1.000
; #@! TA.AperFunction,Plated,PTH,ComponentDrill
T4C1.500
; #@! TA.AperFunction,NonPlated,NPTH,ComponentDrill
T5C1.700
; #@! TA.AperFunction,NonPlated,NPTH,ComponentDrill
T6C4.000
%
G90
G05
T1
X128.635Y-44.88
X135.635Y-23.88
X136.635Y-37.88
X138.635Y-26.88
X138.635Y-47.88
X141.635Y-40.88
X147.635Y-28.88
X148.918Y-43.071
T2
X79.835Y-53.124
X79.835Y-60.744
X79.835Y-72.174
X79.835Y-79.794
X79.835Y-91.224
X79.835Y-98.844
X79.835Y-110.274
X79.835Y-117.894
X98.885Y-53.124
X98.885Y-60.744
X98.885Y-72.174
X98.885Y-79.794
X98.885Y-91.224
X98.885Y-98.844
X98.885Y-110.274
X98.885Y-117.894
X117.935Y-53.124
X117.935Y-60.744
X117.935Y-72.174
X117.935Y-79.794
X117.935Y-91.224
X117.935Y-98.844
X117.935Y-110.274
X117.935Y-117.894
X136.985Y-53.124
X136.985Y-60.744
X136.985Y-72.174
X136.985Y-79.794
X136.985Y-91.224
X136.985Y-98.844
X136.985Y-110.274
X136.985Y-117.894
T3
X116.135Y-28.07
X116.135Y-30.61
X116.135Y-33.15
X116.135Y-35.69
X134.385Y-26.72
X134.385Y-29.26
X134.385Y-31.8
X134.385Y-34.34
X134.385Y-36.88
X134.385Y-39.42
X134.385Y-41.96
X149.635Y-26.72
X149.635Y-29.26
X149.635Y-31.8
X149.635Y-34.34
X149.635Y-36.88
X149.635Y-39.42
X149.635Y-41.96
T4
X85.55Y-52.965
X85.55Y-72.015
X85.55Y-91.065
X85.55Y-110.115
X91.9Y-50.425
X91.9Y-69.475
X91.9Y-88.525
X91.9Y-107.575
X104.6Y-52.965
X104.6Y-72.015
X104.6Y-91.065
X104.6Y-110.115
X110.95Y-50.425
X110.95Y-69.475
X110.95Y-88.525
X110.95Y-107.575
X123.65Y-52.965
X123.65Y-72.015
X123.65Y-91.065
X123.65Y-110.115
X130.0Y-50.425
X130.0Y-69.475
X130.0Y-88.525
X130.0Y-107.575
X142.7Y-52.965
X142.7Y-72.015
X142.7Y-91.065
X142.7Y-110.115
X149.05Y-50.425
X149.05Y-69.475
X149.05Y-88.525
X149.05Y-107.575
T5
X84.28Y-55.505
X84.28Y-74.555
X84.28Y-93.605
X84.28Y-112.655
X94.44Y-55.505
X94.44Y-74.555
X94.44Y-93.605
X94.44Y-112.655
X103.33Y-55.505
X103.33Y-74.555
X103.33Y-93.605
X103.33Y-112.655
X113.49Y-55.505
X113.49Y-74.555
X113.49Y-93.605
X113.49Y-112.655
X122.38Y-55.505
X122.38Y-74.555
X122.38Y-93.605
X122.38Y-112.655
X132.54Y-55.505
X132.54Y-74.555
X132.54Y-93.605
X132.54Y-112.655
X141.43Y-55.505
X141.43Y-74.555
X141.43Y-93.605
X141.43Y-112.655
X151.59Y-55.505
X151.59Y-74.555
X151.59Y-93.605
X151.59Y-112.655
T6
X89.36Y-55.505
X89.36Y-74.555
X89.36Y-93.605
X89.36Y-112.655
X108.41Y-55.505
X108.41Y-74.555
X108.41Y-93.605
X108.41Y-112.655
X127.46Y-55.505
X127.46Y-74.555
X127.46Y-93.605
X127.46Y-112.655
X146.51Y-55.505
X146.51Y-74.555
X146.51Y-93.605
X146.51Y-112.655
M30
